HIERARCHY
ROOT Root
{
  OFFSET 0.0 0.0 0.0
  CHANNELS 6 Xposition Yposition Zposition Zrotation Yrotation Xrotation
  JOINT Hips
  {
    OFFSET 0.0 100.0 0.0
    CHANNELS 6 Xposition Yposition Zposition Zrotation Yrotation Xrotation
    JOINT Spine1
    {
      OFFSET -0.013727 5.003763 -0.053727
      CHANNELS 3 Zrotation Yrotation Xrotation
      JOINT Spine2
      {
        OFFSET -0.0 7.125301 -0.029825
        CHANNELS 3 Zrotation Yrotation Xrotation
        JOINT Chest
        {
          OFFSET -1e-06 7.550063 -0.815971
          CHANNELS 3 Zrotation Yrotation Xrotation
          JOINT Neck1
          {
            OFFSET -0.181677 26.311295 -0.553348
            CHANNELS 3 Zrotation Yrotation Xrotation
            JOINT Neck2
            {
              OFFSET -3e-06 7.709397 2.302585
              CHANNELS 3 Zrotation Yrotation Xrotation
              JOINT Head
              {
                OFFSET -5e-06 6.128916 1.953709
                CHANNELS 3 Zrotation Yrotation Xrotation
                JOINT HeadEnd
                {
                  OFFSET 0.003598 16.065403 -1.835379
                  CHANNELS 3 Zrotation Yrotation Xrotation
                }
                JOINT Jaw
                {
                  OFFSET 0.002637 0.475592 3.094941
                  CHANNELS 3 Zrotation Yrotation Xrotation
                }
                JOINT LeftEye
                {
                  OFFSET 3.206381 5.380205 7.586883
                  CHANNELS 3 Zrotation Yrotation Xrotation
                }
                JOINT RightEye
                {
                  OFFSET -3.22244 5.361869 7.558234
                  CHANNELS 3 Zrotation Yrotation Xrotation
                }
              }
            }
          }
          JOINT LeftShoulder
          {
            OFFSET 1.621652 23.237164 5.113413
            CHANNELS 3 Zrotation Yrotation Xrotation
            JOINT LeftArm
            {
              OFFSET 14.919846 2e-06 -5.502326
              CHANNELS 3 Zrotation Yrotation Xrotation
              JOINT LeftForeArm
              {
                OFFSET 28.739307 0.0 -0.002588
                CHANNELS 3 Zrotation Yrotation Xrotation
                JOINT LeftHand
                {
                  OFFSET 27.093981 -1e-06 0.002609
                  CHANNELS 3 Zrotation Yrotation Xrotation
                  JOINT LeftHandThumb1
                  {
                    OFFSET 2.276482 -1.392045 3.191413
                    CHANNELS 3 Zrotation Yrotation Xrotation
                    JOINT LeftHandThumb2
                    {
                      OFFSET 4.012836 -1.828127 1.641654
                      CHANNELS 3 Zrotation Yrotation Xrotation
                      JOINT LeftHandThumb3
                      {
                        OFFSET 2.798515 0.0 -3e-06
                        CHANNELS 3 Zrotation Yrotation Xrotation
                        JOINT LeftHandThumbEnd
                        {
                          OFFSET 3.180793 -4e-06 4e-06
                          CHANNELS 3 Zrotation Yrotation Xrotation
                        }
                      }
                    }
                  }
                  JOINT LeftHandIndex1
                  {
                    OFFSET 3.247555 -0.531998 2.296169
                    CHANNELS 3 Zrotation Yrotation Xrotation
                    JOINT LeftHandIndex2
                    {
                      OFFSET 6.364578 0.01206 0.1786
                      CHANNELS 3 Zrotation Yrotation Xrotation
                      JOINT LeftHandIndex3
                      {
                        OFFSET 3.662364 0.0 0.0
                        CHANNELS 3 Zrotation Yrotation Xrotation
                        JOINT LeftHandIndex4
                        {
                          OFFSET 2.329242 4e-06 4e-06
                          CHANNELS 3 Zrotation Yrotation Xrotation
                          JOINT LeftHandIndexEnd
                          {
                            OFFSET 2.759615 -0.180537 -0.113024
                            CHANNELS 3 Zrotation Yrotation Xrotation
                          }
                        }
                      }
                    }
                  }
                  JOINT LeftHandMiddle1
                  {
                    OFFSET 3.163495 0.240981 1.000332
                    CHANNELS 3 Zrotation Yrotation Xrotation
                    JOINT LeftHandMiddle2
                    {
                      OFFSET 6.19078 -0.259278 -1.002548
                      CHANNELS 3 Zrotation Yrotation Xrotation
                      JOINT LeftHandMiddle3
                      {
                        OFFSET 4.35652 -4e-06 -1e-06
                        CHANNELS 3 Zrotation Yrotation Xrotation
                        JOINT LeftHandMiddle4
                        {
                          OFFSET 2.996877 -8e-06 0.0
                          CHANNELS 3 Zrotation Yrotation Xrotation
                          JOINT LeftHandMiddleEnd
                          {
                            OFFSET 2.304287 -0.294569 -0.031741
                            CHANNELS 3 Zrotation Yrotation Xrotation
                          }
                        }
                      }
                    }
                  }
                  JOINT LeftHandRing1
                  {
                    OFFSET 2.882643 -0.053652 -0.322543
                    CHANNELS 3 Zrotation Yrotation Xrotation
                    JOINT LeftHandRing2
                    {
                      OFFSET 5.854541 -0.486202 -1.373841
                      CHANNELS 3 Zrotation Yrotation Xrotation
                      JOINT LeftHandRing3
                      {
                        OFFSET 4.350578 0.0 3e-06
                        CHANNELS 3 Zrotation Yrotation Xrotation
                        JOINT LeftHandRing4
                        {
                          OFFSET 2.651321 7e-06 2e-06
                          CHANNELS 3 Zrotation Yrotation Xrotation
                          JOINT LeftHandRingEnd
                          {
                            OFFSET 1.936105 0.077687 -7.1e-05
                            CHANNELS 3 Zrotation Yrotation Xrotation
                          }
                        }
                      }
                    }
                  }
                  JOINT LeftHandPinky1
                  {
                    OFFSET 2.8655 -0.310005 -1.600378
                    CHANNELS 3 Zrotation Yrotation Xrotation
                    JOINT LeftHandPinky2
                    {
                      OFFSET 5.087849 -1.331141 -1.77123
                      CHANNELS 3 Zrotation Yrotation Xrotation
                      JOINT LeftHandPinky3
                      {
                        OFFSET 3.070974 4e-06 0.0
                        CHANNELS 3 Zrotation Yrotation Xrotation
                        JOINT LeftHandPinky4
                        {
                          OFFSET 1.549672 0.0 1e-06
                          CHANNELS 3 Zrotation Yrotation Xrotation
                          JOINT LeftHandPinkyEnd
                          {
                            OFFSET 1.944893 -0.157802 0.057219
                            CHANNELS 3 Zrotation Yrotation Xrotation
                          }
                        }
                      }
                    }
                  }
                }
              }
            }
          }
          JOINT RightShoulder
          {
            OFFSET -1.380118 23.180309 5.214158
            CHANNELS 3 Zrotation Yrotation Xrotation
            JOINT RightArm
            {
              OFFSET -15.037196 1.2e-05 -5.545604
              CHANNELS 3 Zrotation Yrotation Xrotation
              JOINT RightForeArm
              {
                OFFSET -28.736639 2e-06 -0.002597
                CHANNELS 3 Zrotation Yrotation Xrotation
                JOINT RightHand
                {
                  OFFSET -27.133619 -0.0 0.002613
                  CHANNELS 3 Zrotation Yrotation Xrotation
                  JOINT RightHandThumb1
                  {
                    OFFSET -2.274032 -1.383988 3.163127
                    CHANNELS 3 Zrotation Yrotation Xrotation
                    JOINT RightHandThumb2
                    {
                      OFFSET -4.011429 -1.827466 1.640914
                      CHANNELS 3 Zrotation Yrotation Xrotation
                      JOINT RightHandThumb3
                      {
                        OFFSET -2.794935 -4e-06 -3e-06
                        CHANNELS 3 Zrotation Yrotation Xrotation
                        JOINT RightHandThumbEnd
                        {
                          OFFSET -3.183852 4e-06 1e-06
                          CHANNELS 3 Zrotation Yrotation Xrotation
                        }
                      }
                    }
                  }
                  JOINT RightHandIndex1
                  {
                    OFFSET -3.253266 -0.520057 2.282866
                    CHANNELS 3 Zrotation Yrotation Xrotation
                    JOINT RightHandIndex2
                    {
                      OFFSET -6.341917 0.012471 0.178266
                      CHANNELS 3 Zrotation Yrotation Xrotation
                      JOINT RightHandIndex3
                      {
                        OFFSET -3.654871 -8e-06 -0.0
                        CHANNELS 3 Zrotation Yrotation Xrotation
                        JOINT RightHandIndex4
                        {
                          OFFSET -2.327586 0.0 1e-06
                          CHANNELS 3 Zrotation Yrotation Xrotation
                          JOINT RightHandIndexEnd
                          {
                            OFFSET -2.76179 -0.180656 -0.113078
                            CHANNELS 3 Zrotation Yrotation Xrotation
                          }
                        }
                      }
                    }
                  }
                  JOINT RightHandMiddle1
                  {
                    OFFSET -3.168106 0.246593 1.00103
                    CHANNELS 3 Zrotation Yrotation Xrotation
                    JOINT RightHandMiddle2
                    {
                      OFFSET -6.180828 -0.258836 -1.000895
                      CHANNELS 3 Zrotation Yrotation Xrotation
                      JOINT RightHandMiddle3
                      {
                        OFFSET -4.348901 0.0 -0.0
                        CHANNELS 3 Zrotation Yrotation Xrotation
                        JOINT RightHandMiddle4
                        {
                          OFFSET -3.00024 -4e-06 -2e-06
                          CHANNELS 3 Zrotation Yrotation Xrotation
                          JOINT RightHandMiddleEnd
                          {
                            OFFSET -2.30252 -0.29437 -0.031706
                            CHANNELS 3 Zrotation Yrotation Xrotation
                          }
                        }
                      }
                    }
                  }
                  JOINT RightHandRing1
                  {
                    OFFSET -2.88569 -0.067952 -0.308858
                    CHANNELS 3 Zrotation Yrotation Xrotation
                    JOINT RightHandRing2
                    {
                      OFFSET -5.854198 -0.48613 -1.373731
                      CHANNELS 3 Zrotation Yrotation Xrotation
                      JOINT RightHandRing3
                      {
                        OFFSET -4.33881 -4e-06 -0.0
                        CHANNELS 3 Zrotation Yrotation Xrotation
                        JOINT RightHandRing4
                        {
                          OFFSET -2.654903 -4e-06 4e-06
                          CHANNELS 3 Zrotation Yrotation Xrotation
                          JOINT RightHandRingEnd
                          {
                            OFFSET -1.933568 0.077527 -5.2e-05
                            CHANNELS 3 Zrotation Yrotation Xrotation
                          }
                        }
                      }
                    }
                  }
                  JOINT RightHandPinky1
                  {
                    OFFSET -2.866425 -0.342796 -1.584145
                    CHANNELS 3 Zrotation Yrotation Xrotation
                    JOINT RightHandPinky2
                    {
                      OFFSET -5.091371 -1.332055 -1.772385
                      CHANNELS 3 Zrotation Yrotation Xrotation
                      JOINT RightHandPinky3
                      {
                        OFFSET -3.062664 -4e-06 1e-06
                        CHANNELS 3 Zrotation Yrotation Xrotation
                        JOINT RightHandPinky4
                        {
                          OFFSET -1.546529 4e-06 -2e-06
                          CHANNELS 3 Zrotation Yrotation Xrotation
                          JOINT RightHandPinkyEnd
                          {
                            OFFSET -1.945119 -0.157718 0.057211
                            CHANNELS 3 Zrotation Yrotation Xrotation
                          }
                        }
                      }
                    }
                  }
                }
              }
            }
          }
        }
      }
    }
    JOINT LeftLeg
    {
      OFFSET 10.043214 -8.434526 2.595655
      CHANNELS 3 Zrotation Yrotation Xrotation
      JOINT LeftShin
      {
        OFFSET -1e-06 -43.221752 -0.802913
        CHANNELS 3 Zrotation Yrotation Xrotation
        JOINT LeftFoot
        {
          OFFSET 1e-06 -42.155094 -3.481523
          CHANNELS 3 Zrotation Yrotation Xrotation
          JOINT LeftToeBase
          {
            OFFSET 0.0 -5.059472 13.231529
            CHANNELS 3 Zrotation Yrotation Xrotation
            JOINT LeftToeEnd
            {
              OFFSET -0.009607 -1.647619 6.513017
              CHANNELS 3 Zrotation Yrotation Xrotation
            }
          }
        }
      }
    }
    JOINT RightLeg
    {
      OFFSET -10.047278 -8.29526 2.620317
      CHANNELS 3 Zrotation Yrotation Xrotation
      JOINT RightShin
      {
        OFFSET 1e-06 -43.362206 -0.805556
        CHANNELS 3 Zrotation Yrotation Xrotation
        JOINT RightFoot
        {
          OFFSET 2e-06 -42.117393 -3.478398
          CHANNELS 3 Zrotation Yrotation Xrotation
          JOINT RightToeBase
          {
            OFFSET -0.0 -5.079609 13.284196
            CHANNELS 3 Zrotation Yrotation Xrotation
            JOINT RightToeEnd
            {
              OFFSET 0.009532 -1.634378 6.460591
              CHANNELS 3 Zrotation Yrotation Xrotation
            }
          }
        }
      }
    }
  }
}
MOTION
Frames: 4
Frame Time: 0.03333333333333333
0.0 0.0 0.0 0.0 -0.0 0.0 -2.993145 44.110233 2.845695 7.074344 -2.405977 48.097553 1.231909 -0.423789 20.964088 0.708724 1.044954 3.150406 2.589691 0.293944 10.977015 3.951296 1.034437 -0.30658 -0.723305 -4.104474 -3.883591 0.958745 -6.226775 -2.024102 7.6e-05 -2.2e-05 6e-06 -0.101807 -0.005386 -0.099262 0.791142 -3.735435 -11.078784 -1.002511 3.717088 -11.213095 9.429883 -8.927408 0.007134 -30.229574 -74.370789 -11.426476 2.681751 -35.479507 -1.294447 58.580177 -22.715057 -6.064514 -5.88211 9.861293 0.70259 -10.936882 -0.360575 7.156212 1e-06 8.774831 -3e-06 -14.961694 18.252197 6.093539 -1.844034 2.498507 -2.507279 -10.163607 4.678947 4.621112 -20.97604 -0.0 5e-06 -21.226303 2.451701 -3.594002 1e-06 -5e-06 -1e-06 -1.362682 2.2408 -0.746323 -21.33493 0.584911 3.008328 -13.821225 -1e-06 3e-06 -23.887188 -0.249077 -0.839482 -58.20649 2.347275 -1.201119 -0.294026 1.679688 0.833257 -14.218221 0.093215 1.300584 -34.212074 -0.287561 0.967174 -20.03323 0.964538 1.212845 0.0 1e-06 0.0 -3.440392 0.788234 0.501656 -15.928201 -3.167312 2.999713 -6.338831 -0.0 1e-06 -18.123459 3.648185 -4.905674 -5e-06 1e-06 -1e-06 -28.886967 22.996305 -8.826428 -23.477194 45.56591 -77.68029 1.45829 22.177763 0.962578 -48.787148 -8.832669 14.216148 2.243543 -5.255041 -3.180162 14.282902 -0.826594 6.952507 -1e-06 -12.690612 -3e-06 16.020748 -17.516897 2.492715 1.665667 -1.955924 -2.878302 4.727802 -4.170589 4.993926 11.020533 2e-06 1e-06 12.10906 -3.735718 -2.866787 1e-06 -0.0 -1e-06 1.291986 -1.928551 -1.49809 14.800139 0.567468 3.865611 14.242582 -1.341739 -6.660662 19.631979 0.143924 -0.648243 48.897957 -1.129683 -6.684985 0.353029 -1.511152 -0.031939 20.222803 3.684311 2.316635 18.787287 4e-06 2e-06 10.751637 -0.47987 1.397908 -0.0 1e-06 1e-06 3.273809 0.305947 -0.58011 21.486834 11.830383 2.266141 8.162933 1e-06 -1e-06 18.399096 -3.798989 -4.940578 2e-06 0.0 1e-06 14.322221 38.492802 -77.949333 -2.433776 0.01918 132.902481 14.465274 -39.77319 -35.123917 1.774463 -1.427637 -26.543806 0.0 -0.0 2e-06 9.99731 -41.994114 -57.814907 2.546349 1.363863 126.828079 -4.269067 10.601469 -44.775604 -1.524788 0.616637 -42.904209 0.0 -1e-06 -2e-06 
0.0 0.0 0.0 0.0 -0.0 0.0 -2.82141 44.155743 3.006933 6.445615 -2.919265 48.500957 1.329747 -0.429789 20.950844 0.73103 1.189103 3.119522 2.941066 0.59438 10.975741 3.461795 1.118012 -1.027898 -0.415637 -3.966907 -3.852678 0.858304 -5.917523 -2.278412 7.7e-05 -2.2e-05 6e-06 -0.125089 -0.002432 -0.102329 0.769337 -3.736963 -11.090992 -1.025362 3.72198 -11.210468 9.137408 -8.50261 0.261157 -28.443413 -74.460014 -13.482194 2.341074 -35.318096 -1.211533 58.980957 -22.69982 -6.934565 -5.882111 9.861295 0.702588 -10.936881 -0.360577 7.156213 -0.0 8.774832 -4e-06 -14.814513 18.202488 6.151611 -1.844034 2.498507 -2.507281 -10.163608 4.678946 4.621111 -20.97604 -2e-06 4e-06 -21.226303 2.451701 -3.594004 1e-06 -5e-06 0.0 -1.362683 2.2408 -0.746324 -21.33493 0.584909 3.008327 -13.821223 -1e-06 4e-06 -23.887188 -0.249076 -0.839481 -58.285072 2.291409 -1.152866 -0.294025 1.679689 0.833257 -14.218221 0.093214 1.300583 -34.212082 -0.287563 0.967175 -20.033232 0.96454 1.212847 0.0 0.0 -0.0 -3.44039 0.788234 0.501656 -15.928201 -3.167313 2.999713 -6.33883 -1e-06 1e-06 -18.123463 3.648184 -4.905674 -4e-06 1e-06 -1e-06 -27.887918 23.620512 -8.466895 -25.815172 45.650345 -77.853737 1.509966 21.697361 0.898514 -48.244083 -9.299487 14.595094 2.243542 -5.255043 -3.18016 14.282902 -0.826594 6.952511 -1e-06 -12.690615 -3e-06 16.066067 -17.542789 2.483382 1.665667 -1.955923 -2.878301 4.727802 -4.170591 4.993927 11.020535 3e-06 2e-06 12.109059 -3.735722 -2.866786 2e-06 1e-06 -1e-06 1.291986 -1.928553 -1.498091 14.800139 0.567469 3.865613 14.242579 -1.341739 -6.660664 19.631979 0.143923 -0.648243 49.147335 -1.087266 -6.511692 0.353029 -1.511152 -0.03194 20.222805 3.684312 2.316637 18.787285 3e-06 2e-06 10.751637 -0.479872 1.397909 -1e-06 1e-06 1e-06 3.273808 0.305947 -0.58011 21.48683 11.830384 2.266141 8.162935 2e-06 -0.0 18.399096 -3.798989 -4.940578 2e-06 -0.0 1e-06 14.801652 38.834877 -77.314186 -2.264394 0.201856 132.891083 15.018427 -39.294952 -36.072247 1.730012 -1.41568 -26.630655 -0.0 0.0 2e-06 10.021465 -41.479343 -58.154568 2.544983 1.38589 126.819481 -4.338192 11.200376 -45.216866 -1.511418 0.612219 -42.511211 0.0 -1e-06 -2e-06 
0.0 0.0 0.0 0.0 -0.0 0.0 -2.55761 44.360004 2.947454 5.782755 -3.560064 48.730736 1.431388 -0.428515 20.980949 0.741226 1.319878 3.125114 3.253816 0.821287 11.019029 3.115158 1.217902 -1.537083 -0.292645 -3.728157 -3.85221 0.749247 -5.494799 -2.439609 7.7e-05 -2.3e-05 6e-06 -0.155902 -0.000166 -0.101432 0.74714 -3.753112 -11.181628 -1.063269 3.738973 -11.279505 8.935239 -8.044619 0.509649 -27.035053 -74.364174 -15.183381 2.08642 -35.195065 -1.131645 59.208588 -22.258945 -7.913197 -5.882112 9.861293 0.702591 -10.936879 -0.360575 7.15621 -1e-06 8.774833 -2e-06 -14.739154 18.219519 6.200139 -1.844034 2.498507 -2.507278 -10.16361 4.678949 4.621111 -20.976042 -1e-06 3e-06 -21.226307 2.451701 -3.594004 1e-06 -6e-06 -1e-06 -1.362683 2.2408 -0.746322 -21.33493 0.584911 3.008325 -13.821223 -1e-06 3e-06 -23.887188 -0.249077 -0.839485 -58.422871 2.257173 -1.124646 -0.294025 1.679688 0.833256 -14.218219 0.093215 1.300581 -34.212074 -0.287561 0.967173 -20.03323 0.96454 1.212844 -0.0 0.0 -0.0 -3.440391 0.788234 0.501657 -15.928201 -3.167311 2.99971 -6.33883 0.0 2e-06 -18.123461 3.648187 -4.905675 -4e-06 1e-06 -1e-06 -27.00511 24.502153 -8.016601 -28.087542 45.280594 -77.592781 1.775735 21.275146 0.948305 -47.34642 -10.147726 14.577611 2.243543 -5.255039 -3.18016 14.282905 -0.826595 6.952513 -2e-06 -12.69061 -0.0 16.262312 -17.518167 2.323581 1.665668 -1.955922 -2.878301 4.727805 -4.17059 4.993928 11.020536 2e-06 -1e-06 12.10906 -3.735717 -2.866785 1e-06 -0.0 -1e-06 1.291986 -1.928551 -1.498091 14.800144 0.567469 3.865613 14.242583 -1.341738 -6.660661 19.631987 0.143922 -0.648241 49.206261 -1.058615 -6.43831 0.353029 -1.511151 -0.03194 20.222805 3.684309 2.316636 18.787289 3e-06 2e-06 10.751636 -0.479871 1.397909 -1e-06 1e-06 1e-06 3.273809 0.305947 -0.58011 21.486834 11.830379 2.266139 8.162936 0.0 -0.0 18.399099 -3.798989 -4.940577 3e-06 1e-06 -1e-06 14.876679 39.366619 -76.98362 -2.113517 0.33487 133.033295 15.50665 -38.852448 -36.495144 1.714576 -1.408649 -26.771198 0.0 -0.0 2e-06 9.916947 -40.885189 -58.797478 2.474642 1.375761 126.976593 -4.371854 11.629735 -45.288052 -1.521311 0.627176 -42.153084 -0.0 0.0 -2e-06 
0.0 0.0 0.0 0.0 -0.0 0.0 -2.267245 44.677265 2.75903 5.220944 -4.250186 48.812134 1.475163 -0.441063 21.053476 0.723405 1.371517 3.166581 3.514931 0.939074 11.14496 2.970027 1.24736 -1.778944 -0.271228 -3.338142 -3.863111 0.699292 -4.997936 -2.499306 7.7e-05 -2.2e-05 6e-06 -0.175788 -0.000319 -0.107692 0.737012 -3.763939 -11.258344 -1.091788 3.747433 -11.344025 8.806479 -7.558288 0.686013 -25.912329 -74.34391 -16.785149 1.865846 -34.917713 -1.039152 59.449371 -21.887587 -8.35504 -5.882108 9.86129 0.702588 -10.936877 -0.360579 7.15621 1e-06 8.77483 -4e-06 -14.657984 18.236961 6.25363 -1.844033 2.498506 -2.507278 -10.163606 4.678944 4.62111 -20.976036 -6e-06 4e-06 -21.226299 2.451695 -3.594001 1e-06 -5e-06 -1e-06 -1.362682 2.2408 -0.746323 -21.334925 0.584904 3.008326 -13.821221 -5e-06 3e-06 -23.887184 -0.249081 -0.839479 -58.509232 2.275216 -1.073305 -0.294025 1.679688 0.833257 -14.218219 0.093213 1.300581 -34.21207 -0.287568 0.967176 -20.033226 0.964535 1.212848 -0.0 0.0 -0.0 -3.440391 0.788233 0.501656 -15.928198 -3.167314 2.99971 -6.338831 -2e-06 0.0 -18.123457 3.64818 -4.905674 -5e-06 0.0 -1e-06 -26.4139 25.384796 -7.692893 -29.930262 44.667843 -77.165283 2.019161 20.901283 1.011511 -46.34087 -10.943336 13.897874 2.243542 -5.25504 -3.180159 14.282894 -0.826592 6.952506 -2e-06 -12.690607 -1e-06 16.416563 -17.536381 2.14787 1.665666 -1.955923 -2.878299 4.727801 -4.170587 4.993923 11.020529 3e-06 -1e-06 12.109055 -3.735717 -2.866785 0.0 -0.0 1e-06 1.291986 -1.928549 -1.49809 14.800132 0.567469 3.865608 14.242576 -1.341737 -6.66066 19.631973 0.143929 -0.648245 49.221478 -1.028596 -6.481753 0.353029 -1.51115 -0.031941 20.222797 3.684311 2.316631 18.787273 6e-06 1e-06 10.751631 -0.479868 1.397907 -1e-06 1e-06 1e-06 3.273808 0.305947 -0.580111 21.48682 11.830379 2.266136 8.16293 2e-06 -0.0 18.399088 -3.798984 -4.940577 3e-06 1e-06 -0.0 14.540923 39.928139 -76.911606 -2.020184 0.396536 133.23288 15.777326 -38.594563 -36.368767 1.725567 -1.409637 -26.70479 -0.0 0.0 2e-06 9.665644 -40.345913 -59.551559 2.36884 1.349289 127.223122 -4.673902 11.995315 -45.320095 -1.5231 0.640786 -41.664471 0.0 0.0 -0.0 
